<?xml version="1.0" encoding="UTF-8" standalone="no"?>
<!-- Created with Inkscape (http://www.inkscape.org/) -->

<svg
   xmlns:dc="http://purl.org/dc/elements/1.1/"
   xmlns:cc="http://creativecommons.org/ns#"
   xmlns:rdf="http://www.w3.org/1999/02/22-rdf-syntax-ns#"
   xmlns:svg="http://www.w3.org/2000/svg"
   xmlns="http://www.w3.org/2000/svg"
   xmlns:sodipodi="http://sodipodi.sourceforge.net/DTD/sodipodi-0.dtd"
   xmlns:inkscape="http://www.inkscape.org/namespaces/inkscape"
   width="190"
   height="190"
   viewBox="0 0 190 190"
   id="svg3522"
   version="1.1"
   inkscape:version="0.91 r13725"
   sodipodi:docname="drawing-5.svg">
  <defs
     id="defs3524" />
  <sodipodi:namedview
     id="base"
     pagecolor="#ffffff"
     bordercolor="#666666"
     borderopacity="1.0"
     inkscape:pageopacity="0.0"
     inkscape:pageshadow="2"
     inkscape:zoom="2.8"
     inkscape:cx="109.09352"
     inkscape:cy="94.321779"
     inkscape:document-units="px"
     inkscape:current-layer="layer1"
     showgrid="false"
     units="px"
     inkscape:window-width="1600"
     inkscape:window-height="834"
     inkscape:window-x="0"
     inkscape:window-y="27"
     inkscape:window-maximized="1" />
  <metadata
     id="metadata3527">
    <rdf:RDF>
      <cc:Work
         rdf:about="">
        <dc:format>image/svg+xml</dc:format>
        <dc:type
           rdf:resource="http://purl.org/dc/dcmitype/StillImage" />
        <dc:title></dc:title>
      </cc:Work>
    </rdf:RDF>
  </metadata>
  <g
     inkscape:label="Layer 1"
     inkscape:groupmode="layer"
     id="layer1"
     transform="translate(0,-862.36216)">
    <g
       id="g4304">
      <path
         sodipodi:nodetypes="ccssccc"
         inkscape:connector-curvature="0"
         id="path3648"
         transform="translate(0,862.36216)"
         d="M 3.1920651,116.57419 C 13.140427,158.43872 50.907404,188.65912 95,188.70508 c 42.54642,-0.0513 79.19921,-28.19722 90.64884,-67.78707 0.72185,-2.49599 -4.21231,-4.78493 -2.08571,-10.08251 0.64181,-1.59884 4.57686,-0.9342 4.82359,-2.65777 l -181.4447557,0 c -1.5459989,2.28425 -4.0543639,2.98598 -3.7498992,8.39646 z"
         style="fill:#ffffff;fill-opacity:1;fill-rule:evenodd;stroke:none;stroke-width:0.98882264px;stroke-linecap:butt;stroke-linejoin:miter;stroke-opacity:1" />
      <path
         sodipodi:nodetypes="cssssssssssccsccsscccccsscsssssssscsss"
         inkscape:connector-curvature="0"
         id="path4237"
         transform="translate(0,862.36216)"
         d="m 0.78125,96.428292 c -0.13875033,3.494919 12.474427,2.843762 12.605357,4.863458 0.109179,1.68417 -6.3733138,7.29061 -7.5036645,8.82788 -0.9830886,1.33699 -2.8841786,2.36912 -2.7884629,4.08976 0.1352902,2.43206 0.4379164,5.16754 1.2099766,7.64586 3.2086097,10.2997 8.3566608,20.78433 14.6974968,29.67014 4.221293,5.91556 6.103516,6.96318 6.103516,3.39649 0,-0.92701 0.861946,-4.19216 1.916015,-7.25586 5.882021,-17.09644 21.344772,-33.35025 33.28125,-34.98633 5.770266,-0.79088 8.545612,0.0197 12.765625,3.72656 8.530864,7.49341 19.844976,8.92248 29.990231,3.78906 3.10503,-1.57115 6.07226,-2.71076 6.5918,-2.5332 0.51955,0.17751 1.79295,-0.96011 2.83203,-2.52734 2.61076,-3.93767 8.99563,-6.93699 12.97656,-6.09571 15.55076,3.28619 31.41054,25.99611 34.29883,49.11328 l 0.70117,5.61524 4.6543,-5.17774 c 8.63697,-9.6085 19.23235,-22.20601 20.39258,-35.53711 0.88243,-10.13921 -5.88551,-10.85731 2.77037,-17.69587 L 140,96.428292 91.071429,92.142578 l -45.357143,0 z m 122.01172,56.407648 c -7.67047,-0.26434 -15.06621,8.49845 -14.99609,21.83203 0.0236,4.49256 0.61608,8.39007 1.61718,10.6543 1.80541,4.08174 1.42097,4.08074 14.5,0.0644 11.18972,-3.4362 13.60156,-5.13069 13.60156,-9.55469 10e-6,-5.207 -2.19883,-12.87425 -4.76757,-16.62305 -2.92481,-4.26846 -6.4685,-6.25289 -9.95508,-6.37304 z m -54.726564,1.51562 c -2.386552,-0.0594 -4.890709,0.75668 -7.322265,2.61133 -4.412655,3.3657 -9.189453,12.87923 -9.189453,18.30273 0,4.76241 1.12009,5.57418 13.697265,9.92188 10.624786,3.6728 12.483332,3.56421 14.351563,-0.83789 0.85508,-2.0149 1.537701,-6.3954 1.582031,-10.1582 0.136571,-11.59658 -5.959483,-19.66167 -13.119141,-19.83985 z"
         style="fill:#f8c3ab" />
      <path
         style="fill:#221e1f"
         d="m 73.257093,1049.2733 c -5.666099,-1.3457 -19.643998,-6.6517 -20.619662,-7.8274 -0.591658,-0.7128 -0.610728,-2.8011 -0.05284,-5.7873 2.042625,-10.9337 8.149888,-17.9941 15.564922,-17.9941 7.134255,0 12.001263,7.0078 12.137011,17.4755 0.07582,5.8466 -1.867295,15.2209 -3.113157,15.0191 -0.322137,-0.052 -2.08446,-0.4508 -3.916269,-0.8858 z m 36.742237,-1.617 c -3.43357,-8.7421 -1.34443,-22.3219 4.30283,-27.9691 4.32382,-4.3239 7.30905,-4.9355 12.29907,-2.5199 5.62653,2.7238 8.99868,9.0818 9.69417,18.2778 l 0.51868,6.8582 -6.49766,2.5283 c -5.87901,2.2876 -16.59005,5.4224 -18.52727,5.4224 -0.42325,0 -1.22866,-1.1689 -1.78982,-2.5977 z m 50.81281,-24.9039 c -0.19722,-0.7202 -1.0329,-4.8549 -1.85705,-9.1884 -4.17246,-21.93922 -21.34799,-42.62447 -35.41294,-42.6494 -4.64957,-0.008 -5.3277,0.29791 -9.68238,4.3712 -5.04866,4.72243 -5.51541,4.73128 -3.15522,0.06 2.02426,-4.00648 4.9245,-7.11168 8.39111,-8.98413 l 2.83387,-1.53066 -5.66774,-0.67162 c -15.36945,-1.82133 -46.354765,-2.91084 -68.957421,-2.42473 l -24.560179,0.5282 -3.620764,4.08528 c -1.991421,2.24692 -5.983221,7.17815 -8.870667,10.95831 -2.8874463,3.78016 -5.379339,6.74362 -5.5375394,6.58542 -0.1582004,-0.15821 -0.6996043,-2.12115 -1.20312,-4.36214 -0.9927155,-4.41826 -1.5890535,-3.33808 7.7282704,-13.99878 l 1.807961,-2.06866 -5.3995691,0.5573 c -5.7863119,0.5972 -7.06018665,-0.13801 -7.08872893,-4.09114 -0.0125942,-1.74433 0.68791553,-2.07838 5.41711293,-2.58324 11.1334921,-1.18855 35.3439111,-2.62816 55.0242471,-3.27186 l 20.309376,-0.66427 -12.280087,-8.18195 C 54.882727,935.80066 35.81864,925.20263 24.026228,920.20845 13.916607,915.92694 10.94208,913.85395 12.56782,912.22292 c 4.714971,-4.73031 53.318357,18.66286 73.284811,35.27253 2.498027,2.07806 4.801034,3.51911 5.117798,3.20235 0.316764,-0.31677 0.737625,-3.01965 0.935252,-6.00642 2.486058,-37.5726 7.011989,-61.63551 11.592869,-61.63551 2.46275,0 2.72789,1.58873 1.29649,7.76888 -2.32648,10.04471 -4.20845,27.56635 -4.7896,44.59236 l -0.57815,16.93791 3.22183,-1.95988 c 15.78166,-9.60018 34.71535,-18.55088 50.92525,-24.07435 10.61332,-3.61645 24.8275,-6.47221 26.06335,-5.23635 1.6936,1.6936 -1.28817,3.56671 -10.16353,6.3846 -18.13502,5.75779 -33.54667,12.64955 -51.6411,23.0928 -8.44654,4.87493 -8.73263,6.13325 -1.40056,6.1601 5.33639,0.0196 30.82466,3.37271 47.06037,6.19111 26.63625,4.62392 25.03396,4.21139 25.01803,6.44055 -0.0209,2.925 -1.45091,4.75078 -3.19638,4.081 -1.90452,-0.73083 -1.90016,-0.2205 0.0232,2.71491 1.3193,2.01349 1.37106,2.93063 0.36765,6.51443 l -1.16781,4.17105 -6.48016,-7.86286 -6.48014,-7.86285 -6.40375,-1.13092 c -7.36149,-1.30007 -32.749,-4.64447 -33.06343,-4.35558 -0.11565,0.10627 2.55485,2.01115 5.93445,4.23309 13.99244,9.19954 24.26936,27.48868 26.17975,46.59033 0.35109,3.5105 0.0758,4.7835 -1.30429,6.0324 -1.41444,1.2801 -1.81792,1.3325 -2.10788,0.2738 z m -138.905589,-5.7366 c -1.532363,-2.3387 -1.513662,-2.7475 0.383315,-8.3786 7.810971,-23.18646 23.618611,-39.06953 38.742243,-38.9271 6.134765,0.0578 10.030457,1.77006 13.553784,5.95728 3.802635,4.5192 3.168415,6.43453 -0.937043,2.82989 -6.264503,-5.50028 -11.151774,-6.09499 -19.221162,-2.33886 -2.836223,1.32022 -6.972778,3.88847 -9.192346,5.70724 -8.268224,6.77522 -16.965507,20.58095 -20.147095,31.98075 l -1.570739,5.628 -1.610957,-2.4586 z"
         id="path4225"
         inkscape:connector-curvature="0" />
    </g>
  </g>
</svg>
