<?xml version="1.0" encoding="utf-8"?>
<!-- Generator: Adobe Illustrator 15.1.0, SVG Export Plug-In . SVG Version: 6.00 Build 0)  -->
<!DOCTYPE svg PUBLIC "-//W3C//DTD SVG 1.1//EN" "http://www.w3.org/Graphics/SVG/1.1/DTD/svg11.dtd">
<svg version="1.1"
	 id="svg3522" sodipodi:docname="drawing-5.svg" inkscape:version="0.91 r13725" xmlns:inkscape="http://www.inkscape.org/namespaces/inkscape" xmlns:sodipodi="http://sodipodi.sourceforge.net/DTD/sodipodi-0.dtd" xmlns:rdf="http://www.w3.org/1999/02/22-rdf-syntax-ns#" xmlns:svg="http://www.w3.org/2000/svg" xmlns:cc="http://creativecommons.org/ns#" xmlns:dc="http://purl.org/dc/elements/1.1/"
	 xmlns="http://www.w3.org/2000/svg" xmlns:xlink="http://www.w3.org/1999/xlink" x="0px" y="0px" width="190px" height="190px"
	 viewBox="0 0 190 190" enable-background="new 0 0 190 190" xml:space="preserve">
<circle fill="#439D3D" cx="95" cy="95" r="93.967"/>
<sodipodi:namedview  units="px" pagecolor="#ffffff" id="base" bordercolor="#666666" inkscape:cy="94.321779" borderopacity="1.0" inkscape:pageopacity="0.0" inkscape:pageshadow="2" inkscape:zoom="2.8" inkscape:cx="109.09352" inkscape:document-units="px" inkscape:current-layer="layer1" showgrid="false" inkscape:window-width="1600" inkscape:window-height="834" inkscape:window-x="0" inkscape:window-y="27" inkscape:window-maximized="1">
	</sodipodi:namedview>
<g id="layer1" transform="translate(0,-862.36216)" inkscape:label="Layer 1" inkscape:groupmode="layer">
	<g id="g4304">
		<path id="path3648" inkscape:connector-curvature="0" sodipodi:nodetypes="ccssccc" fill="#FFFFFF" d="M3.192,979.231
			c9.949,41.864,47.715,72.085,91.808,72.131c42.547-0.051,79.199-28.197,90.648-67.787c0.723-2.496-4.212-4.785-2.086-10.082
			c0.643-1.6,4.578-0.935,4.824-2.658H6.942C5.396,973.119,2.888,973.821,3.192,979.231z"/>
		
			<path id="path4237" inkscape:connector-curvature="0" sodipodi:nodetypes="cssssssssssccsccsscccccsscsssssssscsss" fill="#F8C3AB" d="
			M0.781,959.085c-0.139,3.496,12.475,2.844,12.605,4.864c0.109,1.685-6.374,7.29-7.504,8.827c-0.983,1.338-2.884,2.369-2.788,4.09
			c0.135,2.433,0.438,5.168,1.21,7.646c3.208,10.299,8.356,20.784,14.697,29.67c4.221,5.916,6.104,6.963,6.104,3.396
			c0-0.927,0.862-4.192,1.916-7.256c5.882-17.097,21.345-33.35,33.281-34.986c5.771-0.791,8.545,0.02,12.766,3.727
			c8.531,7.493,19.845,8.922,29.99,3.789c3.105-1.571,6.072-2.711,6.592-2.533s1.793-0.96,2.832-2.527
			c2.611-3.938,8.996-6.938,12.977-6.096c15.551,3.286,31.41,25.996,34.299,49.113l0.701,5.615l4.654-5.178
			c8.637-9.608,19.232-22.206,20.393-35.537c0.883-10.139-5.886-10.857,2.771-17.695L140,959.085L91.071,954.8H45.714L0.781,959.085
			z M122.793,1015.493c-7.67-0.264-15.066,8.498-14.996,21.832c0.023,4.492,0.616,8.391,1.617,10.654
			c1.805,4.082,1.421,4.08,14.5,0.064c11.189-3.437,13.602-5.131,13.602-9.555c0-5.207-2.199-12.874-4.768-16.623
			C129.823,1017.598,126.279,1015.613,122.793,1015.493L122.793,1015.493z M68.066,1017.009c-2.387-0.06-4.891,0.757-7.322,2.611
			c-4.413,3.365-9.189,12.879-9.189,18.303c0,4.762,1.12,5.574,13.697,9.922c10.625,3.673,12.483,3.564,14.352-0.838
			c0.855-2.015,1.538-6.396,1.582-10.158C81.322,1025.252,75.226,1017.186,68.066,1017.009z"/>
		<path id="path4225" inkscape:connector-curvature="0" fill="#221E1F" d="M73.257,1049.568c-5.667-1.346-19.644-6.651-20.62-7.827
			c-0.591-0.713-0.61-2.801-0.053-5.787c2.043-10.934,8.15-17.994,15.565-17.994c7.134,0,12.001,7.008,12.137,17.475
			c0.076,5.848-1.867,15.222-3.113,15.02C76.851,1050.402,75.089,1050.003,73.257,1049.568L73.257,1049.568z M110,1047.951
			c-3.434-8.741-1.346-22.321,4.303-27.969c4.323-4.324,7.309-4.936,12.299-2.521c5.626,2.725,8.998,9.082,9.693,18.278l0.52,6.858
			l-6.498,2.528c-5.879,2.287-16.59,5.422-18.527,5.422C111.365,1050.549,110.561,1049.38,110,1047.951z M160.812,1023.048
			c-0.197-0.721-1.033-4.855-1.857-9.189c-4.172-21.938-21.348-42.624-35.413-42.648c-4.649-0.008-5.327,0.298-9.683,4.371
			c-5.049,4.723-5.516,4.73-3.154,0.06c2.023-4.007,4.924-7.111,8.391-8.983l2.834-1.531l-5.668-0.672
			c-15.369-1.82-46.354-2.91-68.958-2.424l-24.56,0.527l-3.621,4.086c-1.992,2.246-5.983,7.178-8.871,10.958
			c-2.888,3.78-5.379,6.743-5.538,6.585s-0.7-2.121-1.203-4.361c-0.993-4.418-1.589-3.338,7.728-13.999l1.808-2.069l-5.399,0.558
			c-5.787,0.598-7.061-0.138-7.089-4.091c-0.013-1.744,0.688-2.078,5.417-2.584c11.134-1.188,35.344-2.627,55.024-3.271
			l20.309-0.665l-12.28-8.182c-14.148-9.427-33.212-20.025-45.004-25.019c-10.11-4.281-13.084-6.354-11.458-7.985
			c4.715-4.73,53.318,18.663,73.285,35.272c2.498,2.078,4.801,3.519,5.118,3.202c0.317-0.317,0.738-3.02,0.936-6.006
			c2.486-37.572,7.012-61.635,11.592-61.635c2.463,0,2.729,1.588,1.297,7.769c-2.326,10.045-4.209,27.566-4.789,44.592
			l-0.578,16.938l3.221-1.96c15.782-9.6,34.716-18.551,50.926-24.074c10.613-3.616,24.828-6.472,26.063-5.236
			c1.694,1.694-1.288,3.567-10.163,6.385c-18.135,5.758-33.547,12.649-51.642,23.093c-8.446,4.875-8.732,6.133-1.4,6.16
			c5.337,0.02,30.825,3.373,47.061,6.191c26.636,4.624,25.034,4.211,25.018,6.44c-0.021,2.925-1.45,4.751-3.196,4.081
			c-1.904-0.73-1.9-0.221,0.023,2.715c1.319,2.014,1.371,2.931,0.367,6.515l-1.168,4.171l-6.479-7.863l-6.48-7.862l-6.403-1.131
			c-7.361-1.3-32.749-4.645-33.063-4.356c-0.116,0.107,2.555,2.012,5.935,4.234c13.992,9.199,24.27,27.488,26.18,46.59
			c0.351,3.51,0.076,4.783-1.305,6.032C161.506,1024.054,161.102,1024.106,160.812,1023.048L160.812,1023.048z M21.907,1017.311
			c-1.533-2.34-1.514-2.748,0.383-8.379c7.811-23.187,23.619-39.07,38.742-38.928c6.135,0.059,10.03,1.771,13.554,5.957
			c3.803,4.52,3.168,6.436-0.937,2.83c-6.265-5.5-11.152-6.095-19.221-2.338c-2.836,1.319-6.973,3.888-9.192,5.707
			c-8.268,6.775-16.965,20.58-20.147,31.98l-1.571,5.628L21.907,1017.311L21.907,1017.311z"/>
	</g>
</g>
</svg>
